<svg id="Layer_1" data-name="Layer 1" xmlns="http://www.w3.org/2000/svg" viewBox="0 0 604 353"><defs><style>.cls-1{fill:#4f5565;}.cls-2{fill:#ed5b28;}.cls-3{fill:#fdd401;}.cls-4{fill:#6ed455;}.cls-5{fill:#343843;}.cls-6{font-size:12px;font-family:Bahnschrift, Bahnschrift;}.cls-6,.cls-9{fill:#cecece;}.cls-7{letter-spacing:-0.06em;}.cls-8{letter-spacing:-0.02em;}.cls-10{fill:#f2f3f7;}.cls-11{fill:#859ce0;}.cls-12{fill:#92a9f4;}.cls-13{fill:#adc1f7;}.cls-14{fill:#dd97ae;}.cls-15{fill:#ef9eb6;}.cls-16{fill:#efafc7;}.cls-17{fill:#eab45e;}.cls-18{fill:#f9c262;}.cls-19{fill:#f9ce8f;}.cls-20{fill:#ffcda8;}.cls-21{fill:#ff5b47;}.cls-22{fill:#e53e2d;}.cls-23{fill:#384e99;}.cls-24{fill:#00a6f9;}.cls-25{fill:#91c6e0;}.cls-26{fill:#f7e8c4;}</style></defs><title>Banner_New</title><g id="Browser"><rect id="Frame" class="cls-1" width="604" height="353" rx="15" ry="15"/><g id="Top_Bar" data-name="Top Bar"><circle class="cls-2" cx="27.38" cy="20" r="7"/><circle class="cls-3" cx="47.74" cy="20" r="7"/><circle class="cls-4" cx="66.83" cy="20" r="7"/><rect class="cls-5" x="122.38" y="12" width="347" height="17" rx="8.5" ry="8.5"/><rect class="cls-5" x="86.38" y="12" width="22" height="17" rx="8" ry="8"/><rect class="cls-5" x="487.38" y="12" width="22" height="17" rx="8" ry="8"/><rect class="cls-5" x="522.38" y="12" width="22" height="17" rx="8" ry="8"/><text class="cls-6" transform="translate(153.13 24.75)">ww<tspan class="cls-7" x="18.56" y="0">w</tspan><tspan class="cls-8" x="27.14" y="0">.</tspan><tspan x="29.63" y="0">omni-slid</tspan><tspan class="cls-8" x="81.09" y="0">e</tspan><tspan x="87.29" y="0">.tk</tspan></text><path class="cls-9" d="M471.5,49.3h-.18v-.83a2.83,2.83,0,0,0-2.74-2.85h-.17a2.83,2.83,0,0,0-2.74,2.85v.83h-.18a.58.58,0,0,0-.5.63V54.1a.58.58,0,0,0,.5.63h6a.58.58,0,0,0,.5-.63V49.93A.58.58,0,0,0,471.5,49.3ZM469.06,52v1.26a.27.27,0,0,1-.26.27h-.6a.27.27,0,0,1-.26-.27V52a.76.76,0,0,1,.48-1.3h.17a.76.76,0,0,1,.48,1.3Zm1.09-2.71h-3.31v-.83a1.66,1.66,0,1,1,3.31,0v.83Z" transform="translate(-328.63 -29)"/></g><rect id="WhiteBackgroundWeb" class="cls-10" x="16.37" y="39" width="572" height="302" rx="10.27" ry="10.27"/></g><g id="Blue"><rect class="cls-11" x="41.38" y="64" width="157" height="135" rx="13.14" ry="13.14"/><rect class="cls-12" x="35.38" y="55" width="157" height="135" rx="13.14" ry="13.14"/><rect class="cls-13" x="47.38" y="68" width="57" height="52" rx="7" ry="7"/><rect class="cls-13" x="117.38" y="70" width="59" height="10" rx="5" ry="5"/><rect class="cls-13" x="117.38" y="88" width="59" height="10" rx="5" ry="5"/><rect class="cls-13" x="117.38" y="106" width="59" height="10" rx="5" ry="5"/><rect class="cls-13" x="49.37" y="129" width="127" height="10" rx="4.98" ry="4.98"/><rect class="cls-13" x="49.37" y="147" width="127" height="10" rx="4.98" ry="4.98"/><rect class="cls-13" x="49.37" y="168" width="68" height="10" rx="3.64" ry="3.64"/></g><g id="Pink"><rect class="cls-14" x="43.38" y="225" width="152" height="96" rx="12.06" ry="12.06"/><rect class="cls-15" x="37.38" y="216" width="152" height="96" rx="12.06" ry="12.06"/><circle class="cls-16" cx="114.38" cy="259" r="26"/><rect class="cls-16" x="44.37" y="230" width="37" height="12" rx="5.5" ry="5.5"/><rect class="cls-16" x="44.37" y="252" width="37" height="12" rx="5.5" ry="5.5"/><rect class="cls-16" x="44.37" y="273" width="37" height="12" rx="5.5" ry="5.5"/><rect class="cls-16" x="147.37" y="231" width="37" height="12" rx="5.5" ry="5.5"/><rect class="cls-16" x="147.37" y="253" width="37" height="12" rx="5.5" ry="5.5"/><rect class="cls-16" x="147.37" y="274" width="37" height="12" rx="5.5" ry="5.5"/><rect class="cls-16" x="62.38" y="293" width="108" height="12" rx="5.45" ry="5.45"/></g><g id="Yellow"><rect class="cls-17" x="241.38" y="59" width="327" height="276" rx="17.41" ry="17.41"/><rect class="cls-18" x="230.38" y="47" width="327" height="276" rx="17.41" ry="17.41"/><rect class="cls-19" x="253.37" y="306" width="276" height="10" rx="4.93" ry="4.93"/><rect class="cls-19" x="262.37" y="54" width="266" height="10" rx="4.84" ry="4.84"/><circle class="cls-19" cx="245.38" cy="59" r="6"/><circle class="cls-19" cx="542.38" cy="311" r="6"/></g><g id="virus"><g id="Virus-2" data-name="Virus"><circle class="cls-20" cx="322.87" cy="195.5" r="69.5"/><path class="cls-21" d="M684.5,243.3c-1.92,8.32-14.71,12.46-28.57,9.27a39.21,39.21,0,0,1-12.65-5.27h0c-6.55-4.3-10.23-10.15-9-15.57,1.92-8.32,14.71-12.47,28.57-9.27S686.42,235,684.5,243.3Z" transform="translate(-328.63 -29)"/><path class="cls-22" d="M659.5,237.11c-7.57-1.75-13.21-6.33-14-11a6.28,6.28,0,0,0-1,2.28c-1.24,5.37,5,11.4,14,13.46s17.21-.62,18.45-6a6.28,6.28,0,0,0,.06-2.51C674.15,237.21,667.07,238.86,659.5,237.11Z" transform="translate(-328.63 -29)"/><path class="cls-22" d="M650.17,232.88l-2.28,3.81s-9.2,3.25-4.6,10.6c-6.55-4.3-10.23-10.15-9-15.57,1.92-8.32,14.71-12.47,28.57-9.27C662.88,222.45,647.23,225.66,650.17,232.88Z" transform="translate(-328.63 -29)"/><path class="cls-21" d="M721,224.5q0,1.46-.06,2.91-.13,3.29-.57,6.48a69.08,69.08,0,0,1-3.57,14.47,46.94,46.94,0,0,1-7.81-1h0c-10.13-2.18-17.45-7.64-18.49-14.92C689,221.76,701.55,211,719,207.79c.09.35.17.7.26,1.06A69.9,69.9,0,0,1,721,224.5Z" transform="translate(-328.63 -29)"/><path class="cls-22" d="M720.94,227.41q-.13,3.29-.57,6.48a28.78,28.78,0,0,1-10.77-1.78c-4.55-1.78-7.66-4.77-8.2-8.52a8.26,8.26,0,0,1,.2-3.31c1.65,2.73,4.87,4.85,9,6.05A31,31,0,0,0,720.94,227.41Z" transform="translate(-328.63 -29)"/><path class="cls-22" d="M710.59,226.33h0l-1,5.78s-9.78,8.4-.62,15.27c-10.13-2.18-17.45-7.64-18.49-14.92C689,221.76,701.55,211,719,207.79c.09.35.17.7.26,1.06C714.78,212.15,705,220.44,710.59,226.33Z" transform="translate(-328.63 -29)"/><path class="cls-21" d="M650.51,207.4c-2.53,11-19.44,16.47-37.76,12.25a51.84,51.84,0,0,1-16.71-7h0c-8.66-5.69-13.52-13.42-11.86-20.58,2.53-11,19.44-16.48,37.76-12.25S653,196.41,650.51,207.4Z" transform="translate(-328.63 -29)"/><path class="cls-22" d="M617.46,199.22c-10-2.31-17.46-8.37-18.53-14.48a8.3,8.3,0,0,0-1.39,3c-1.64,7.1,6.63,15.06,18.46,17.79s22.75-.81,24.39-7.91a8.31,8.31,0,0,0,.07-3.32C636.83,199.35,627.47,201.53,617.46,199.22Z" transform="translate(-328.63 -29)"/><path class="cls-22" d="M605.13,193.63l-3,5S590,203,596,212.68c-8.66-5.69-13.52-13.42-11.86-20.58,2.53-11,19.44-16.48,37.76-12.25C621.93,179.85,601.25,184.09,605.13,193.63Z" transform="translate(-328.63 -29)"/><path class="cls-21" d="M710.7,260.93a69.8,69.8,0,0,1-15.28,17.44,69.34,69.34,0,0,1-22.16,12.16c-4.89-4.12-7.61-9.15-7.08-14.29,1.15-11.22,17.24-18.77,35.94-16.86A55.67,55.67,0,0,1,710.7,260.93Z" transform="translate(-328.63 -29)"/><path class="cls-22" d="M695.42,278.37a68.42,68.42,0,0,1-6.29,4.58c-6.56-2.92-10.72-7.72-10.21-12.69a8.31,8.31,0,0,1,1-3.16C681.44,272.08,687.46,276.48,695.42,278.37Z" transform="translate(-328.63 -29)"/><path class="cls-22" d="M687.17,275.14l-2.36,5.38s-6.12,3.07-6.64,8.18q-2.41,1-4.91,1.83c-4.89-4.12-7.61-9.15-7.08-14.29,1.15-11.22,17.24-18.77,35.94-16.86C702.12,259.37,682.12,266.16,687.17,275.14Z" transform="translate(-328.63 -29)"/><path class="cls-23" d="M632.84,234.68a4.24,4.24,0,0,1-2.68-2l-4.3-7.48a4.26,4.26,0,0,1,7.38-4.25l4.3,7.48a4.26,4.26,0,0,1-4.7,6.26Z" transform="translate(-328.63 -29)"/><path class="cls-23" d="M624.08,282.48a4.26,4.26,0,0,1-2.65-6.3l6.48-11a4.26,4.26,0,1,1,7.33,4.33l-6.48,11A4.26,4.26,0,0,1,624.08,282.48Z" transform="translate(-328.63 -29)"/><path class="cls-23" d="M668.63,262.71l-.16,0L654,258.54a4.25,4.25,0,1,1,2.33-8.18l14.47,4.12a4.26,4.26,0,0,1-2.17,8.23Z" transform="translate(-328.63 -29)"/><circle class="cls-24" cx="310.98" cy="221.01" r="24.11"/><path class="cls-25" d="M633.88,273.43a24.11,24.11,0,0,1,11.45-46.84c-5.78-1.41-13,7.93-16.2,20.86S628.1,272,633.88,273.43Z" transform="translate(-328.63 -29)"/><path class="cls-23" d="M649.12,243.34a4.26,4.26,0,0,1-1.5-7.57l11.82-8.64a4.26,4.26,0,0,1,5,6.87l-11.82,8.64A4.24,4.24,0,0,1,649.12,243.34Z" transform="translate(-328.63 -29)"/><path class="cls-23" d="M650.22,284.57a4.25,4.25,0,0,1-2.9-2.46l-6.18-14.44a4.26,4.26,0,1,1,7.82-3.35l6.18,14.44a4.26,4.26,0,0,1-4.92,5.81Z" transform="translate(-328.63 -29)"/><path class="cls-23" d="M606.54,256.29a4.26,4.26,0,0,1,.48-8.36l14.16-1.79a4.26,4.26,0,1,1,1.07,8.44l-14.16,1.79A4.24,4.24,0,0,1,606.54,256.29Z" transform="translate(-328.63 -29)"/><path class="cls-23" d="M671.41,175.21a4.24,4.24,0,0,1-3.23-.87L661.39,169a4.26,4.26,0,0,1,5.26-6.69l6.78,5.33a4.25,4.25,0,0,1-2,7.56Z" transform="translate(-328.63 -29)"/><path class="cls-23" d="M715.06,187.88l-.16,0-15,1.57A4.25,4.25,0,1,1,699,181l15-1.57a4.25,4.25,0,0,1,1,8.44Z" transform="translate(-328.63 -29)"/><circle class="cls-24" cx="354.77" cy="157.91" r="24.11"/><path class="cls-25" d="M686.82,210.78A24.11,24.11,0,1,1,680,163c-5.89.84-9.14,12.21-7.25,25.4S680.92,211.62,686.82,210.78Z" transform="translate(-328.63 -29)"/><path class="cls-23" d="M689.74,177.17a4.26,4.26,0,0,1-4.21-6.46l7.75-12.42a4.26,4.26,0,1,1,7.22,4.5l-7.75,12.42A4.25,4.25,0,0,1,689.74,177.17Z" transform="translate(-328.63 -29)"/><path class="cls-23" d="M706.13,215a4.25,4.25,0,0,1-3.61-1.2l-11.12-11.1a4.25,4.25,0,1,1,6-6l11.12,11.1a4.26,4.26,0,0,1-2.4,7.22Z" transform="translate(-328.63 -29)"/><path class="cls-23" d="M655,205.07a4.26,4.26,0,0,1-2.67-7.93l12.47-6.94a4.26,4.26,0,0,1,4.14,7.44l-12.47,6.94A4.24,4.24,0,0,1,655,205.07Z" transform="translate(-328.63 -29)"/><path class="cls-21" d="M615.58,284a69.47,69.47,0,0,1-11.9-9.07q-2.33-2.21-4.45-4.63A69.57,69.57,0,0,1,588.56,254c15.89-6.7,31.81-4.83,36.49,4.67C628.68,266,624.58,276,615.58,284Z" transform="translate(-328.63 -29)"/><path class="cls-22" d="M603.68,274.93q-2.33-2.21-4.45-4.63c6.3-4.48,10.06-10.4,9.77-15.39a8.28,8.28,0,0,1,2,2.62C613.55,262.6,610.35,269.57,603.68,274.93Z" transform="translate(-328.63 -29)"/></g><rect class="cls-26" x="399.37" y="119" width="116" height="12" rx="6" ry="6"/><rect class="cls-26" x="413.38" y="147" width="103" height="12" rx="6" ry="6"/><rect class="cls-26" x="417.38" y="175" width="99" height="12" rx="6" ry="6"/><rect class="cls-26" x="417.38" y="205" width="99" height="12" rx="6" ry="6"/><rect class="cls-26" x="320.38" y="93" width="195" height="12" rx="5.19" ry="5.19"/></g></svg>